<svg width="30" height="30" viewBox="0 0 30 30" fill="none" xmlns="http://www.w3.org/2000/svg">
<path d="M21.7501 11.625H18.2894C17.9554 8.32471 16.6535 6 15 6C13.3455 6 12.0447 8.32471 11.7106 11.625H8.24999L6 24.0001H24L21.7501 11.625ZM15 7.12505C15.8832 7.12505 16.8446 8.96964 17.1457 11.625H12.8544C13.1554 8.96961 14.1168 7.12505 15 7.12505ZM9.18829 12.75H20.8106L22.6521 22.8751H7.34804L9.18829 12.75Z" fill="black"/>
<path d="M12.1866 13.5939C11.7206 13.5939 11.3428 13.9717 11.3428 14.4377C11.3428 14.9035 11.7206 15.2814 12.1866 15.2814C12.6523 15.2814 13.0303 14.9035 13.0303 14.4377C13.0303 13.9717 12.6523 13.5939 12.1866 13.5939Z" fill="black"/>
<path d="M17.8114 13.5939C17.3455 13.5939 16.9675 13.9717 16.9675 14.4377C16.9675 14.9035 17.3455 15.2814 17.8114 15.2814C18.2771 15.2814 18.6549 14.9035 18.6549 14.4377C18.6549 13.9717 18.2771 13.5939 17.8114 13.5939Z" fill="black"/>
</svg>
