<svg width="30" height="30" viewBox="0 0 30 30" fill="none" xmlns="http://www.w3.org/2000/svg">
<path d="M18.825 7C17.3625 7 16.0125 7.60323 15 8.7C13.9875 7.60323 12.6375 7 11.175 7C8.30625 7 6 9.30323 6 12.1C6 16.871 14.2688 23.6161 14.6625 23.8903C14.775 24 14.8875 24 15 24C15.1125 24 15.2812 23.9452 15.3375 23.8903C15.7312 23.6161 24 16.871 24 12.1C24 9.30323 21.6937 7 18.825 7ZM15 22.7387C13.425 21.3677 7.125 15.829 7.125 12.1C7.125 9.90645 8.925 8.09677 11.175 8.09677C12.4688 8.09677 13.7625 8.75484 14.55 9.90645C14.775 10.1806 15.2812 10.1806 15.5062 9.90645C16.2937 8.80968 17.5312 8.09677 18.8812 8.09677C21.1312 8.09677 22.9312 9.90645 22.9312 12.1C22.875 15.829 16.575 21.3677 15 22.7387Z" fill="#AA8453"/>
</svg>
