<svg width="30" height="30" viewBox="0 0 30 30" fill="none" xmlns="http://www.w3.org/2000/svg">
<path d="M19.243 11.2826C19.243 8.93479 17.3476 7 14.9999 7C12.6522 7 10.7568 8.91305 10.7568 11.2826C10.7568 13.6522 12.6522 15.5652 14.9999 15.5652C17.3476 15.5652 19.243 13.6522 19.243 11.2826ZM11.8338 11.2826C11.8338 9.52175 13.2553 8.08696 14.9999 8.08696C16.7445 8.08696 18.1661 9.52175 18.1661 11.2826C18.1661 13.0435 16.7445 14.4783 14.9999 14.4783C13.2553 14.4783 11.8338 13.0435 11.8338 11.2826Z" fill="#AA8453"/>
<path d="M8 23.4566C8 23.7609 8.23692 24 8.53846 24C8.84 24 9.07692 23.7609 9.07692 23.4566C9.07692 19.8044 11.6185 17.0435 15 17.0435C18.3815 17.0435 20.9231 19.8044 20.9231 23.4566C20.9231 23.7609 21.16 24 21.4615 24C21.7631 24 22 23.7609 22 23.4566C22 19.2609 18.92 15.9565 15 15.9565C11.08 15.9565 8 19.2392 8 23.4566Z" fill="#AA8453"/>
</svg>
