<svg width="115" height="22" viewBox="0 0 115 22" fill="none" xmlns="http://www.w3.org/2000/svg">
<path d="M3.984 1.93C5.77333 1.93 7.14467 2.304 8.098 3.052C9.066 3.78533 9.55 4.91467 9.55 6.44C9.55 8.05333 9.044 9.24133 8.032 10.004C7.03467 10.752 5.66333 11.126 3.918 11.126H1.762V17H0.442V1.93H3.984ZM3.918 10.048C5.282 10.048 6.33067 9.77667 7.064 9.234C7.79733 8.69133 8.164 7.76733 8.164 6.462C8.164 5.23 7.80467 4.35 7.086 3.822C6.382 3.27933 5.34067 3.008 3.962 3.008H1.762V10.048H3.918ZM20.3749 10.818C20.3749 11.1407 20.3602 11.4487 20.3309 11.742H12.6529C12.7262 13.238 13.0782 14.3527 13.7089 15.086C14.3542 15.8047 15.1975 16.164 16.2389 16.164C16.8402 16.164 17.3682 16.076 17.8229 15.9C18.2922 15.7093 18.7982 15.416 19.3409 15.02L19.9349 15.834C19.3629 16.3033 18.7762 16.6553 18.1749 16.89C17.5735 17.1247 16.9062 17.242 16.1729 17.242C14.6475 17.242 13.4522 16.7213 12.5869 15.68C11.7215 14.6387 11.2889 13.194 11.2889 11.346C11.2889 10.1287 11.4722 9.06533 11.8389 8.156C12.2202 7.232 12.7555 6.52067 13.4449 6.022C14.1489 5.50867 14.9629 5.252 15.8869 5.252C17.3535 5.252 18.4682 5.75067 19.2309 6.748C19.9935 7.73067 20.3749 9.08733 20.3749 10.818ZM19.1209 10.422C19.1209 9.13133 18.8495 8.12667 18.3069 7.408C17.7789 6.67467 16.9869 6.308 15.9309 6.308C14.9775 6.308 14.2075 6.67467 13.6209 7.408C13.0342 8.14133 12.7115 9.256 12.6529 10.752H19.1209V10.422ZM28.4738 5.252C28.9284 5.252 29.3098 5.296 29.6178 5.384L29.3758 6.594C29.0531 6.506 28.7158 6.462 28.3638 6.462C27.5864 6.462 26.9558 6.748 26.4718 7.32C26.0024 7.87733 25.6064 8.75733 25.2838 9.96V17H24.0078V5.494H25.1078L25.2178 8.068C25.5258 7.11467 25.9438 6.41067 26.4718 5.956C27.0144 5.48667 27.6818 5.252 28.4738 5.252ZM35.6028 1.71C34.9428 1.71 34.4441 1.864 34.1068 2.172C33.7841 2.48 33.6228 2.97133 33.6228 3.646V5.494H36.6588L36.4828 6.528H33.6228V17H32.3468V6.528H30.3448V5.494H32.3468V3.602C32.3468 2.69267 32.6255 1.974 33.1828 1.446C33.7548 0.917999 34.5395 0.653999 35.5368 0.653999C36.4315 0.653999 37.3261 0.859333 38.2208 1.27L37.7808 2.216C37.0181 1.87867 36.2921 1.71 35.6028 1.71ZM47.2303 10.818C47.2303 11.1407 47.2157 11.4487 47.1863 11.742H39.5083C39.5817 13.238 39.9337 14.3527 40.5643 15.086C41.2097 15.8047 42.053 16.164 43.0943 16.164C43.6957 16.164 44.2237 16.076 44.6783 15.9C45.1477 15.7093 45.6537 15.416 46.1963 15.02L46.7903 15.834C46.2183 16.3033 45.6317 16.6553 45.0303 16.89C44.429 17.1247 43.7617 17.242 43.0283 17.242C41.503 17.242 40.3077 16.7213 39.4423 15.68C38.577 14.6387 38.1443 13.194 38.1443 11.346C38.1443 10.1287 38.3277 9.06533 38.6943 8.156C39.0757 7.232 39.611 6.52067 40.3003 6.022C41.0043 5.50867 41.8183 5.252 42.7423 5.252C44.209 5.252 45.3237 5.75067 46.0863 6.748C46.849 7.73067 47.2303 9.08733 47.2303 10.818ZM45.9763 10.422C45.9763 9.13133 45.705 8.12667 45.1623 7.408C44.6343 6.67467 43.8423 6.308 42.7863 6.308C41.833 6.308 41.063 6.67467 40.4763 7.408C39.8897 8.14133 39.567 9.256 39.5083 10.752H45.9763V10.422ZM54.8013 5.252C55.4613 5.252 56.0479 5.34733 56.5613 5.538C57.0746 5.714 57.5733 6.00733 58.0573 6.418L57.4193 7.254C57.0379 6.946 56.6419 6.71867 56.2313 6.572C55.8353 6.42533 55.3806 6.352 54.8673 6.352C53.7819 6.352 52.9166 6.77733 52.2713 7.628C51.6259 8.464 51.3033 9.68867 51.3033 11.302C51.3033 12.9007 51.6186 14.1033 52.2493 14.91C52.8946 15.7167 53.7599 16.12 54.8453 16.12C55.3586 16.12 55.8206 16.0393 56.2313 15.878C56.6566 15.7167 57.0819 15.4747 57.5073 15.152L58.1233 16.01C57.1553 16.8313 56.0553 17.242 54.8233 17.242C53.8406 17.242 52.9826 17.0073 52.2493 16.538C51.5159 16.0687 50.9439 15.394 50.5333 14.514C50.1373 13.6193 49.9393 12.556 49.9393 11.324C49.9393 10.1067 50.1373 9.04333 50.5333 8.134C50.9439 7.21 51.5159 6.49867 52.2493 6C52.9826 5.50133 53.8333 5.252 54.8013 5.252ZM66.4118 16.516C65.6784 17 64.8718 17.242 63.9918 17.242C63.1118 17.242 62.4224 16.9853 61.9238 16.472C61.4251 15.944 61.1758 15.1887 61.1758 14.206V6.528H59.2398V5.494H61.1758V2.744L62.4518 2.59V5.494H65.4218L65.2678 6.528H62.4518V14.14C62.4518 14.8147 62.5911 15.3207 62.8698 15.658C63.1484 15.9807 63.5738 16.142 64.1458 16.142C64.7324 16.142 65.3191 15.9733 65.9058 15.636L66.4118 16.516ZM72.2158 1.688C73.1398 1.688 73.9318 1.82733 74.5918 2.106C75.2665 2.37 75.9191 2.788 76.5498 3.36L75.7798 4.196C75.2078 3.712 74.6505 3.36 74.1078 3.14C73.5651 2.92 72.9491 2.81 72.2598 2.81C71.3211 2.81 70.5658 3.04467 69.9938 3.514C69.4218 3.96867 69.1358 4.58467 69.1358 5.362C69.1358 5.89 69.2385 6.33 69.4438 6.682C69.6638 7.01933 70.0231 7.32733 70.5218 7.606C71.0205 7.87 71.7318 8.14133 72.6558 8.42C73.6531 8.728 74.4598 9.058 75.0758 9.41C75.6918 9.762 76.1685 10.2167 76.5058 10.774C76.8431 11.3313 77.0118 12.0353 77.0118 12.886C77.0118 13.7367 76.8065 14.492 76.3958 15.152C75.9851 15.812 75.3985 16.3253 74.6358 16.692C73.8878 17.0587 73.0151 17.242 72.0178 17.242C70.1405 17.242 68.5345 16.6113 67.1998 15.35L67.9478 14.514C68.5638 15.042 69.1871 15.4453 69.8178 15.724C70.4485 15.988 71.1745 16.12 71.9958 16.12C73.0811 16.12 73.9611 15.834 74.6358 15.262C75.3251 14.69 75.6698 13.9127 75.6698 12.93C75.6698 12.314 75.5525 11.808 75.3178 11.412C75.0978 11.016 74.7311 10.6787 74.2178 10.4C73.7191 10.1067 73.0078 9.81333 72.0838 9.52C70.5438 9.05067 69.4438 8.508 68.7838 7.892C68.1238 7.276 67.7938 6.44 67.7938 5.384C67.7938 4.68 67.9771 4.04933 68.3438 3.492C68.7251 2.92 69.2458 2.48 69.9058 2.172C70.5805 1.84933 71.3505 1.688 72.2158 1.688ZM85.6152 5.252C86.6418 5.252 87.4338 5.56733 87.9912 6.198C88.5485 6.814 88.8272 7.672 88.8272 8.772V17H87.5512V8.948C87.5512 7.17333 86.8252 6.286 85.3732 6.286C84.6398 6.286 83.9872 6.49133 83.4152 6.902C82.8578 7.298 82.3225 7.88467 81.8092 8.662V17H80.5332V0.807999L81.8092 0.653999V7.408C82.8358 5.97067 84.1045 5.252 85.6152 5.252ZM97.3408 5.252C98.8662 5.252 100.054 5.78 100.905 6.836C101.77 7.87733 102.203 9.33667 102.203 11.214C102.203 13.0767 101.763 14.5507 100.883 15.636C100.017 16.7067 98.8295 17.242 97.3188 17.242C95.7935 17.242 94.5982 16.714 93.7328 15.658C92.8822 14.5873 92.4568 13.1207 92.4568 11.258C92.4568 10.0407 92.6548 8.97733 93.0508 8.068C93.4468 7.15867 94.0115 6.462 94.7448 5.978C95.4782 5.494 96.3435 5.252 97.3408 5.252ZM97.3408 6.33C96.2262 6.33 95.3608 6.748 94.7448 7.584C94.1288 8.42 93.8208 9.64467 93.8208 11.258C93.8208 12.8567 94.1215 14.074 94.7228 14.91C95.3388 15.746 96.2042 16.164 97.3188 16.164C98.4335 16.164 99.2988 15.746 99.9148 14.91C100.545 14.074 100.861 12.842 100.861 11.214C100.861 9.61533 100.553 8.40533 99.9368 7.584C99.3355 6.748 98.4702 6.33 97.3408 6.33ZM110.701 5.252C112.095 5.252 113.136 5.77267 113.825 6.814C114.529 7.84067 114.881 9.3 114.881 11.192C114.881 13.04 114.5 14.514 113.737 15.614C112.989 16.6993 111.911 17.242 110.503 17.242C109.814 17.242 109.191 17.1027 108.633 16.824C108.076 16.5307 107.607 16.142 107.225 15.658V21.334L105.949 21.51V5.494H107.049L107.159 7.166C107.585 6.56467 108.098 6.09533 108.699 5.758C109.315 5.42067 109.983 5.252 110.701 5.252ZM110.261 16.164C111.317 16.164 112.124 15.746 112.681 14.91C113.239 14.074 113.517 12.8347 113.517 11.192C113.517 7.936 112.498 6.308 110.459 6.308C109.77 6.308 109.169 6.484 108.655 6.836C108.157 7.188 107.68 7.672 107.225 8.288V14.404C107.988 15.5773 109 16.164 110.261 16.164Z" fill="#AA8453"/>
</svg>
